<svg width="53" height="61" viewBox="0 0 53 61" fill="none" xmlns="http://www.w3.org/2000/svg">
<path d="M0.0999756 29.0867C0.0999756 18.2779 8.48233 9.45438 19.8426 9.45438C26.5706 9.45438 30.7617 11.3294 34.622 14.6382L29.4382 20.925C26.5706 18.4985 23.9235 17.0647 19.622 17.0647C13.5559 17.0647 8.81321 22.3588 8.81321 28.7558V28.8661C8.81321 35.7044 13.5559 40.7779 20.1735 40.7779C23.1515 40.7779 25.9088 40.0059 28.0044 38.572V33.1676H19.622V25.9985H35.9456V42.322C32.0853 45.6309 26.7912 48.2779 19.8426 48.2779C8.26174 48.3882 0.0999756 40.2264 0.0999756 29.0867Z" fill="#252972"/>
<path d="M51.8279 60.3V0.299988" stroke="#FFAE1F" stroke-width="2.3229" stroke-miterlimit="10"/>
</svg>
