<svg width="54" height="60" viewBox="0 0 54 60" fill="none" xmlns="http://www.w3.org/2000/svg">
<g clip-path="url(#clip0_1_25)">
<path d="M30.4138 29.1229C30.4138 34.938 29.5254 37.2864 26.6415 41.8694C25.1152 44.2805 31.9004 46.8245 32.1908 49.6722C32.2098 49.7292 32.1908 49.957 32.1908 50.0139C32.2098 52.7478 32.1908 52.2731 32.2098 54.7032V59.5823C32.2098 59.6203 32.2098 59.981 31.8111 59.981C31.0707 60.019 30.8429 60 30.1025 60C13.6805 60 0.144261 46.7485 0.0303509 30.1177C-0.0721678 13.6008 13.7698 -1.15049 32.1719 0.0645471C33.3299 0.140487 33.7286 0.216427 33.9185 0.292366L34.2165 0.425261C34.3874 0.520186 34.881 1.2606 34.7671 2.19086C33.7989 9.55702 27.6477 8.68371 30.0778 14.0754C31.7485 17.7965 30.4765 24.707 30.4765 29.0545L30.4119 29.1229H30.4138Z" fill="#EF4136"/>
<path d="M30.1481 32.17C30.991 32.3446 32.432 32.7528 34.8222 33.3907C37.6509 34.1444 41.1441 36.1815 44.0868 36.9846C47.1244 37.8199 48.1154 37.9338 51.677 37.744C51.715 37.744 51.7206 37.7819 51.7017 37.8199C47.7262 46.1353 39.8171 49.5906 34.0552 49.8753C33.4723 49.9133 33.1002 49.9513 32.5307 49.9323C21.5991 49.7235 12.8661 41.8447 12.3022 31.0043C11.8124 21.6068 20.2113 8.3173 31.758 7.82369C39.9842 7.48196 47.9521 12.0573 51.7491 20.2968C51.7548 20.3158 55.7967 28.2705 52.0662 36.9846C52.0586 37.0035 52.0358 36.9656 52.0206 36.9086C51.8687 36.453 50.5967 33.0547 49.4007 30.169C47.6351 25.8974 44.5595 24.7962 44.5216 24.7962C43.0407 24.9861 39.0159 22.4231 37.668 22.7459C32.9787 23.9229 29.5614 32.0485 30.169 32.1814L30.1481 32.17Z" fill="#D1D3D4"/>
<path d="M30.4575 32.3124C30.4575 32.3124 35.348 34.0134 36.0771 34.3058C38.2413 35.1753 40.8765 38.6799 42.1712 38.8698C43.6976 39.0786 51.7074 37.8066 51.7074 37.8066C51.7074 37.8066 49.8848 42.2681 45.4423 45.5714C42.4237 47.8307 39.2343 49.1406 35.8929 49.6532C34.7538 49.8241 33.4249 49.919 32.0959 49.881C23.7236 49.6532 31.3745 37.5218 31.3745 37.5218L29.495 32.9654M29.9127 32.1681C30.0266 31.048 30.5961 29.5671 32.1149 27.5737C33.9564 25.1816 34.8298 24.1754 36.1207 23.397C37.9053 22.3149 39.576 23.3021 40.9429 23.9096C42.3858 24.5551 43.2781 24.745 44.4171 24.9728C45.3474 25.1626 47.6921 27.5737 47.6921 27.5737C47.6921 27.5737 46.1543 23.2072 44.5216 22.6566C42.8889 22.1061 38.0287 19.3589 35.5037 19.9608C34.1938 20.2702 31.0043 21.2992 29.4475 22.4516C29.0678 22.7402 28.0237 23.7426 28.0806 24.483C28.1565 25.2234 29.9411 32.1377 29.9411 32.1377L29.9221 32.1681H29.9127Z" fill="#414042"/>
<path d="M32.1092 27.044C32.0295 38.4236 31.684 38.3477 32.1852 49.8165C32.1852 49.8886 32.1985 49.9152 32.1415 49.9171C32.0656 49.9209 31.8947 49.9057 31.7998 49.9038C21.0999 49.657 11.5011 40.5822 11.5391 28.7926C11.577 17.3446 20.7278 8.30781 31.6631 7.83318H32.0086C32.0959 7.83318 32.1871 7.8142 32.1852 7.85217C32.0903 11.6681 32.1909 15.617 32.1092 27.1029V27.0459V27.044Z" fill="#EFEFEF"/>
<path d="M31.2777 22.4459C31.42 26.9377 27.8547 30.6664 23.3135 30.7689C18.7723 30.8714 14.9753 27.3136 14.831 22.8218C14.6867 18.3413 18.2521 14.6203 22.7933 14.5064C27.3497 14.4115 31.1467 17.9616 31.2796 22.4611L31.2777 22.4459Z" fill="white"/>
<path d="M29.8348 21.8953C29.9202 24.5912 27.7806 26.8257 25.0563 26.8884C22.332 26.9491 20.0538 24.8152 19.9683 22.1231C19.881 19.4273 22.0187 17.1871 24.7431 17.1301C27.4693 17.0637 29.7475 19.1995 29.8348 21.8953Z" fill="black"/>
<path d="M28.6824 20.9935C28.7261 22.3415 27.6572 23.4616 26.2941 23.4901C24.931 23.5204 23.7919 22.4535 23.7501 21.1056C23.7065 19.7576 24.7753 18.6413 26.1384 18.6109C27.4997 18.5787 28.6388 19.6456 28.6824 20.9935Z" fill="white"/>
<path d="M31.7997 7.80661H32.1851V49.8924H31.7997V7.80661Z" fill="#EFEFEF"/>
<path d="M32.0238 49.9778H32.1757V59.6127H32.0238V49.9778Z" fill="#EF4136"/>
</g>
<defs>
<clipPath id="clip0_1_25">
<rect width="53.6761" height="60" fill="white"/>
</clipPath>
</defs>
</svg>
