<svg width="22" height="22" viewBox="0 0 22 22" fill="none" xmlns="http://www.w3.org/2000/svg">
<rect x="4" y="1" width="16" height="20" rx="2" stroke="#6C45A6" stroke-width="1.5" stroke-linecap="round" stroke-linejoin="round" fill="white"/>
<path d="M0 4C0 3.44772 0.447715 3 1 3H7.5C8.05228 3 8.5 3.44772 8.5 4V6.5C8.5 7.05228 8.05228 7.5 7.5 7.5H1C0.447715 7.5 0 7.05228 0 6.5V4Z" fill="#ED1C24"/>
<path d="M8.28931 6.616H11.9373C12.8546 6.616 13.5693 6.67467 14.0813 6.792C14.604 6.89867 14.9826 7.096 15.2173 7.384C15.4626 7.672 15.5853 8.09333 15.5853 8.648V10.44C15.5853 11.0587 15.3293 11.5387 14.8173 11.88C14.316 12.2107 13.676 12.376 12.8973 12.376L16.2253 17H14.3213L11.3453 12.568H9.84131V17H8.28931V6.616ZM11.8733 11.544C12.6413 11.544 13.1906 11.4533 13.5213 11.272C13.8626 11.08 14.0333 10.7387 14.0333 10.248V8.808C14.0333 8.02933 13.3613 7.64 12.0173 7.64H9.84131V11.544H11.8733Z" fill="#6C45A6"/>
</svg>
