<svg width="60" height="60" viewBox="0 0 60 60" fill="none" xmlns="http://www.w3.org/2000/svg">
<path d="M60 0H10.2983V49.6972H60V0Z" fill="#2E88BA"/>
<path d="M56.5632 6.71713H6.86157V56.4143H56.5632V6.71713Z" fill="#3088BA"/>
<path d="M49.7017 10.3028H0V60H49.7017V10.3028Z" fill="#3088BA"/>
<path d="M56.5632 6.71713H49.7017V49.6972H56.5632V6.71713Z" fill="#2877A2"/>
<path d="M49.5585 49.6972H6.71838V56.4143H49.5585V49.6972Z" fill="#2877A2"/>
<path d="M53.1384 3.43028H3.43677V53.1275H53.1384V3.43028Z" fill="#EC6353"/>
<path d="M39.2482 20.8924H17.0883V23.4263H39.2482V20.8924Z" fill="white"/>
<path d="M29.7375 17.0558H26.611V21.1195H29.7375V17.0558Z" fill="white"/>
<path d="M30.0596 17.0677H28.9618V18.4064H30.0596V17.0677Z" fill="white"/>
<path d="M17.7088 39.3108L17.2195 36.2151C24.5584 35.0438 30.4415 29.3426 31.8377 22.0518L34.9164 22.6374C33.2697 31.2311 26.3484 37.9363 17.7088 39.3108Z" fill="white"/>
<path d="M39.3318 38.8207C30.6564 37.6494 23.58 31.1235 21.7303 22.5777L24.7852 21.9084C26.3604 29.1753 32.3747 34.7211 39.7494 35.7131L39.3318 38.8207Z" fill="white"/>
</svg>
