<svg width="60" height="60" viewBox="0 0 60 60" fill="none" xmlns="http://www.w3.org/2000/svg">
<g clip-path="url(#clip0_1_22)">
<path d="M32.4579 0.118174L33.6704 0.236362L34.8654 0.41144L36.0429 0.625908L37.2073 0.888534L38.3542 1.19493L39.4791 1.54508L40.5866 1.93901L41.6765 2.37671L42.7402 2.8538L43.7864 3.37029L44.802 3.92179L45.8 4.51269L46.7717 5.14298L47.7129 5.80829L48.6321 6.50861L49.5076 7.24394L50.383 8.00988L51.2148 8.80653L52.0114 9.63383L52.7774 10.5092L53.5128 11.3846L54.2132 12.3038L54.8786 13.2448L55.5045 14.2165L56.0998 15.2101L56.6514 16.23L57.1679 17.2716L57.6406 18.3396L58.0784 19.4251L58.4679 20.5325L58.8225 21.6618L59.129 22.8042L59.3916 23.9685L59.6061 25.1503L59.7768 26.3452L59.8994 27.5532L59.9738 28.7788L60 30.0132L59.9738 31.2518L59.8994 32.473L59.7768 33.6811L59.6061 34.8804L59.3916 36.0578L59.129 37.2221L58.8225 38.3645L58.4679 39.4937L58.0784 40.6011L57.6406 41.691L57.1679 42.7546L56.6514 43.7964L56.0998 44.8161L55.5045 45.8141L54.8786 46.7814L54.2132 47.7225L53.5128 48.6417L52.7774 49.5171L52.0114 50.3925L51.2148 51.2241L50.383 52.0207L49.5076 52.7867L48.6321 53.5177L47.7129 54.218L46.7717 54.8833L45.8 55.5092L44.802 56.1001L43.7864 56.656L42.7402 57.1593L41.6765 57.6364L40.5866 58.0741L39.4791 58.468L38.3542 58.8182L37.2073 59.1246L36.0429 59.3872L34.8654 59.6061L33.6704 59.7768L32.4579 59.8994L31.2366 59.9738L29.9978 60L28.7634 59.9738L27.5378 59.8994L26.3296 59.7855L25.1346 59.6148L23.9527 59.396L22.7927 59.1334L21.6459 58.8269L20.5078 58.4724L19.3959 58.0785L18.3104 57.6408L17.2598 57.1593L16.2136 56.6472L15.1937 56.0913L14.2 55.5005L13.2327 54.8745L12.2871 54.2049L11.3679 53.5045L10.4924 52.7736L9.61696 52.0076L8.78532 51.211L7.98859 50.3793L7.22259 49.504L6.4872 48.6286L5.78683 47.7094L5.12148 46.7639L4.49553 45.7966L3.90458 44.7986L3.34865 43.7788L2.83213 42.7371L2.35939 41.6734L1.92165 40.5836L1.53207 39.4762L1.18188 38.347L0.871099 37.2046L0.608455 36.0403L0.393957 34.8629L0.223248 33.6636L0.100683 32.4555L0.0262629 31.2343L0 29.9957L0.0262629 28.7613L0.100683 27.5357L0.223248 26.3277L0.393957 25.1328L0.608455 23.951L0.871099 22.7867L1.18188 21.6443L1.53207 20.515L1.92165 19.4076L2.35939 18.3221L2.83213 17.2541L3.34865 16.2125L3.90458 15.1926L4.49553 14.199L5.12148 13.2273L5.78683 12.2863L6.4872 11.3671L7.22259 10.4917L7.98859 9.61626L8.78532 8.78903L9.61696 7.99239L10.4924 7.22644L11.3679 6.49109L12.2871 5.79078L13.2327 5.12547L14.2 4.49518L15.1937 3.90428L16.2136 3.35279L17.2598 2.8363L18.3235 2.3592L19.409 1.9215L20.5209 1.52757L21.6459 1.17742L22.7927 0.871022L23.9527 0.608397L25.1346 0.393928L26.3296 0.218851L27.5378 0.100676L28.7634 0.0218797L29.9978 0L31.2366 0.0218797L32.4579 0.118174Z" fill="#18164C"/>
<path fill-rule="evenodd" clip-rule="evenodd" d="M32.9073 22.5166C35.1533 20.2215 37.9002 19.1226 41.1157 19.1226C44.1954 19.135 47.1478 20.3533 49.3403 22.5166L46.0602 25.7974C44.6544 24.4398 43.0224 23.7448 41.148 23.7448C39.2928 23.7212 37.5099 24.4637 36.2198 25.7974C34.8625 27.1712 34.1838 28.8197 34.1838 30.7267C34.154 32.5803 34.8907 34.364 36.2198 35.6561C37.8131 37.2701 40.0964 38.0003 42.3304 37.6102C44.5644 37.2201 46.4652 35.7591 47.4174 33.7005H40.8895V29.3206H52.6366C53.0713 32.8682 51.8427 36.4177 49.3079 38.9369C47.0296 41.1996 44.2827 42.3471 41.0995 42.3471C38.0144 42.395 35.0476 41.16 32.9073 38.9369C30.7239 36.7839 29.5942 34.1858 29.5038 31.1279L24.9608 42.7355L20.6612 31.3222L16.4747 42.7355L7.2774 19.2774H12.2398L16.4747 30.1404L20.7258 19.2774L24.9608 30.1404L29.1796 19.2774H34.1419L32.8537 22.5687C32.8715 22.5513 32.8894 22.5339 32.9073 22.5166Z" fill="white"/>
</g>
<defs>
<clipPath id="clip0_1_22">
<rect width="60" height="60" fill="white"/>
</clipPath>
</defs>
</svg>
