<svg width="51" height="60" viewBox="0 0 51 60" fill="none" xmlns="http://www.w3.org/2000/svg">
<path d="M37.5457 53.3899C38.2119 54.9566 38.1335 57.3066 39.1525 58.5599C39.2309 58.6382 39.3485 58.6774 39.4268 58.7557C45.4623 58.4032 45.7759 51.5491 42.8365 48.3766C41.504 47.1233 39.6228 46.6141 37.3497 47.5933C25.3963 52.7241 13.9916 49.4341 7.09385 42.3841C3.29228 38.6241 0.823211 33.8066 0.196146 28.5583C-1.80262 11.8733 11.9144 1.3766 21.3204 0.201602C29.7857 -0.816731 37.624 2.0816 42.9933 7.56493C48.7936 13.3224 51.8506 21.9783 50.0086 31.8874C49.1463 36.4699 46.4421 42.1491 40.3674 42.1491C37.8592 42.1491 35.4685 41.0916 33.7833 39.2899C32.2156 37.8016 31.1182 35.7649 31.0007 33.4149C30.4128 24.4066 42.0135 21.9391 41.2297 12.8916C41.1121 11.2858 40.4066 9.87577 39.2701 8.70077C35.7428 5.33243 28.6884 4.03993 22.261 5.33243C14.3051 6.97743 6.66275 14.1841 5.33023 22.8399C4.27206 29.8899 6.74113 37.8799 11.9536 43.2849C16.6174 47.8283 23.3191 50.3741 31.5885 48.4941C34.2536 47.8674 36.2523 45.3608 40.6418 46.0658C42.2094 46.3008 43.4636 47.0449 44.365 48.0241C47.853 51.2749 47.3043 58.0899 42.7581 59.6566C40.4066 60.4791 36.174 59.8132 34.2928 57.7766C34.2536 57.7374 34.2536 57.7374 34.2144 57.6982C33.9792 57.5807 33.7833 57.3849 33.5873 57.1891C32.8427 56.5624 32.3724 55.3874 32.4508 54.0949C32.6075 52.2149 33.7833 50.7658 35.1158 50.8833C35.6645 50.9224 36.1348 51.1966 36.5267 51.6274C36.997 52.0191 37.3497 52.6458 37.5457 53.3899Z" fill="#524F54"/>
</svg>
